<svg version="1" xmlns="http://www.w3.org/2000/svg" width="933.333" height="933.333" viewBox="0 0 700.000000 700.000000"><path d="M325.5 37c-53.9 4.8-100.5 20.6-146 49.5-26.4 16.7-60.3 48.2-79.3 73.6-34.5 46.2-54.2 94.7-61.9 152.4-2.4 18.1-2.3 58.1.1 75.5 5.2 37.8 14.3 68.1 29.6 99.5 16.4 33.7 35.5 59.9 63.2 87.1 50.4 49.4 112 78.6 184.8 87.6 13.6 1.7 54.4 1.7 68 0 61.3-7.6 115.1-29.8 161.2-66.4 12.1-9.6 34.1-30.9 43.7-42.3 40.3-47.8 63.7-101.1 72.7-165.5 2.4-17.4 2.5-57.4.1-75.5-7.7-57.7-27.4-106.2-61.9-152.4-19-25.4-52.6-56.6-79.3-73.6-40.8-26.1-84.7-42-132.5-48-15.1-1.9-48.7-2.7-62.5-1.5zm188.4 88.2c19.2 14.4 41.6 36.7 56 55.7 5 6.7 9.1 12.5 9.1 13 0 .4-5.3 1.1-11.7 1.5-46.6 2.6-91 28.3-117.7 68-30.8 45.8-35 104.2-11.1 154.1 23.9 50.1 74.9 84.4 129.3 87.2 6.1.3 11.2.9 11.2 1.3 0 .9-7 10.8-13.7 19.4-8.3 10.6-36.4 38.1-47.4 46.4l-9.6 7.3-5.7-2.2c-10.8-4-15.2-9.7-18-23.4-3.4-17.2-11.7-28.4-30.1-40.7-13.9-9.2-20-11.2-34-10.9-24.9.7-25.4.5-33.6-8.7-9.3-10.6-10.5-18.7-4.6-31.9 4.9-11 6-15.5 6-25.8-.1-7.6-.6-10.8-3.8-20.5-2-6.3-5.1-14.2-6.9-17.5-4.1-8-12.4-16.1-22.1-21.7-13.4-7.7-16-11.9-16-25.8 0-14.1 3.1-19 16.8-26.2 8.8-4.7 17.6-13.8 22.1-22.9 6.1-12.6 9.8-26 9.8-36.4.1-10.3-.9-14.8-5.9-25.8-5.8-13-4.5-21.5 4.9-32.1 7.2-8.3 12.7-10.1 25.9-8.4 17.4 2.1 28.8-1.5 46.6-14.6 13.9-10.2 21.1-20.3 24.4-34.1 3.2-13.5 4.1-15.8 7.7-19.6 2.2-2.4 6.1-4.9 9.7-6.4 3.3-1.4 6.2-2.5 6.4-2.5.2 0 2.9 1.9 6 4.2zm-349.2 21.4c8.6 6.6 30.7 13.4 43.2 13.4 8.9 0 14.9-1.5 25.1-6.1 13.1-5.9 21.6-4.5 32.7 5.5 7.6 6.9 8.6 10.3 7.8 26.1-1.1 20.1 1.6 28.5 14.8 46.2 11.2 15 20.3 21.1 37.2 24.8 14.1 3.1 19.1 7 23.1 17.9 3 8.2 3.2 16.2.5 21.4-1 2-4.7 6.8-8.1 10.7-7 7.9-12.4 18.3-13.9 26.9-1.4 7.7-1.4 25.5 0 33.2 1.5 8.6 6.9 19 13.9 26.9 3.4 3.9 7.1 8.7 8.1 10.7 5.5 10.8-1.5 31-12.6 36.2-1.7.8-6.6 2.2-10.9 3.1-16.5 3.4-26.1 9.8-37.4 25-13.1 17.5-15.8 26.1-14.7 46.5.8 15.1-.3 18.8-7.7 25.7-10.8 9.9-19.8 11.3-33.3 5.2-4.4-2-10.4-4.2-13.4-4.9-15-3.6-43.4 3.4-56.5 13.9l-4 3.2-8.9-8.8c-4.8-4.8-11.9-12.4-15.7-16.8-7.6-8.9-20-25.4-20-26.5 0-.4 6.6-1 14.8-1.3 21.6-.8 38.8-4.9 58-13.8 42-19.4 73.9-57.6 85.3-102.3 20.1-78.7-24.1-159.8-101.2-185.9-13.2-4.5-26.4-6.8-42.1-7.4-8.2-.3-14.8-.8-14.8-1 0-1 6.7-10.3 13.9-19.3 10.2-12.8 30-33.2 31.5-32.3.6.4 3 2.2 5.3 3.9z"/></svg>